<?xml version="1.0" standalone="no"?>
<!DOCTYPE svg PUBLIC "-//W3C//DTD SVG 20010904//EN"
 "http://www.w3.org/TR/2001/REC-SVG-20010904/DTD/svg10.dtd">
<svg version="1.0" xmlns="http://www.w3.org/2000/svg"
 width="1024.000000pt" height="1024.000000pt" viewBox="0 0 1024.000000 1024.000000"
 preserveAspectRatio="xMidYMid meet">

<g transform="translate(0.000000,1024.000000) scale(0.100000,-0.100000)"
fill="#000000" stroke="none">
<path d="M5661 9509 c-24 -5 -69 -16 -100 -25 -35 -11 -95 -17 -161 -18 -90
-1 -112 -4 -150 -25 -67 -35 -112 -71 -106 -86 5 -14 -70 -53 -80 -42 -14 13
7 57 26 57 11 0 20 5 20 10 0 16 -40 12 -46 -5 -4 -8 -10 -13 -14 -10 -4 3
-14 -2 -21 -11 -10 -12 -10 -20 -1 -35 15 -24 15 -29 -2 -29 -8 0 -17 -7 -20
-16 -3 -8 -14 -14 -23 -13 -33 3 -43 -1 -43 -17 0 -11 -5 -14 -16 -10 -9 3
-22 6 -30 6 -9 0 -12 5 -8 12 5 8 2 9 -10 5 -18 -7 -17 -1 2 53 3 8 -7 0 -22
-18 -22 -26 -31 -30 -42 -21 -8 6 -14 8 -14 5 0 -4 -7 -1 -15 8 -21 21 -19 42
7 60 12 9 17 16 11 16 -6 0 -23 -14 -37 -31 -23 -27 -31 -30 -59 -25 -17 4
-48 17 -68 31 -56 36 -118 41 -233 16 -90 -19 -128 -31 -98 -31 7 0 12 -4 12
-9 0 -16 -57 -33 -96 -28 -22 2 -52 -2 -69 -9 -64 -25 -103 -34 -156 -34 -38
0 -50 3 -39 10 9 6 10 10 3 10 -6 0 -19 -7 -27 -15 -12 -13 -20 -14 -37 -5
-24 13 -41 4 -19 -10 10 -6 11 -12 5 -18 -6 -5 -60 -54 -122 -110 -61 -55
-122 -104 -135 -107 -13 -4 -26 -13 -30 -19 -10 -14 -29 13 -21 29 3 5 0 4 -8
-2 -20 -20 -32 -15 -26 10 5 20 5 20 -7 5 -18 -25 -46 -23 -46 3 l0 20 -29
-20 c-23 -17 -29 -30 -34 -73 -5 -49 -55 -186 -77 -213 -7 -8 -25 -8 -69 -1
-68 11 -161 -5 -183 -31 -7 -9 -29 -26 -49 -39 -66 -42 -155 -131 -173 -176
-56 -133 -59 -138 -98 -148 -44 -12 -113 -86 -123 -132 -4 -17 -18 -54 -31
-82 -28 -60 -30 -102 -8 -177 22 -74 51 -128 87 -161 l30 -28 -25 -23 c-13
-12 -46 -28 -73 -35 -58 -15 -75 -33 -75 -79 0 -19 -11 -56 -25 -83 -36 -72
-52 -186 -35 -253 7 -28 21 -68 31 -87 11 -19 19 -45 19 -57 0 -12 8 -29 17
-38 23 -24 32 -94 17 -130 -7 -17 -13 -51 -14 -76 0 -25 -9 -64 -20 -87 -15
-31 -20 -61 -20 -125 0 -103 21 -171 58 -190 15 -8 49 -26 76 -40 27 -15 60
-27 72 -27 16 0 24 -6 24 -17 1 -60 93 -183 137 -183 15 0 23 -6 23 -18 0 -10
5 -23 11 -29 7 -7 7 -27 1 -62 -9 -50 1 -101 20 -101 4 0 4 -7 1 -17 -5 -12
-3 -14 7 -8 9 5 11 4 6 -4 -4 -6 1 -22 12 -36 11 -14 23 -41 26 -60 4 -21 13
-35 22 -35 8 0 14 -6 12 -12 -1 -7 10 -36 25 -65 15 -29 27 -57 27 -64 0 -19
98 -207 123 -234 17 -19 18 -19 47 15 27 32 43 89 21 76 -28 -18 -102 44 -129
107 -11 28 -11 29 5 16 10 -7 25 -19 33 -27 8 -7 31 -23 50 -36 19 -13 34 -28
32 -35 -1 -7 1 -10 5 -8 5 3 18 1 31 -4 20 -8 21 -12 11 -30 -6 -12 -9 -42 -6
-65 5 -49 2 -52 -25 -27 -17 15 -18 15 -18 -5 0 -11 -4 -23 -10 -27 -20 -12
34 -100 57 -91 7 3 16 -1 19 -9 9 -23 32 -18 74 15 39 31 50 30 44 -3 -1 -10
4 -21 12 -24 11 -4 12 -9 3 -19 -6 -8 -9 -21 -5 -29 3 -10 0 -15 -11 -15 -12
0 -10 -6 10 -22 21 -19 29 -41 43 -118 9 -52 17 -103 17 -112 1 -10 4 -18 8
-18 3 0 9 -19 13 -42 4 -24 14 -53 22 -66 8 -12 12 -26 9 -31 -2 -5 1 -11 9
-14 8 -3 23 -33 33 -67 10 -34 26 -70 35 -80 10 -11 18 -26 18 -33 0 -19 21
-60 43 -81 9 -10 17 -28 17 -41 0 -13 4 -27 10 -30 5 -3 14 -24 20 -46 6 -22
19 -48 28 -57 17 -17 18 -57 1 -47 -5 4 -9 1 -9 -4 0 -16 19 -13 38 5 13 14
17 14 20 3 3 -8 11 -22 20 -31 12 -15 13 -18 1 -18 -11 0 -11 -2 1 -10 13 -9
13 -11 0 -20 -12 -8 -12 -10 -1 -10 8 0 20 8 28 18 8 9 12 11 8 4 -4 -7 -1
-19 5 -27 7 -8 9 -15 4 -15 -4 0 0 -6 11 -13 10 -8 15 -19 12 -25 -5 -6 1 -8
14 -5 12 4 25 0 30 -8 15 -23 10 -31 -8 -14 -15 16 -17 15 -31 -11 l-15 -28
-14 27 c-8 15 -11 32 -8 37 3 6 1 10 -4 10 -6 0 -11 -4 -11 -10 0 -5 -7 -7
-15 -4 -9 4 -15 0 -15 -7 0 -11 -3 -11 -10 1 -6 8 -8 29 -5 45 4 24 3 26 -4
10 -5 -11 -7 -37 -4 -57 5 -31 2 -38 -11 -38 -9 0 -16 -8 -16 -21 0 -11 4 -18
9 -15 10 7 25 -22 22 -43 -1 -7 2 -10 8 -6 7 3 8 0 5 -9 -3 -9 -1 -16 5 -16 6
0 11 -4 11 -10 0 -5 -7 -10 -15 -10 -8 0 -15 -7 -15 -15 0 -9 9 -15 25 -15 20
0 25 -6 31 -35 3 -20 12 -35 20 -35 8 0 14 -4 14 -10 0 -5 -7 -10 -15 -10 -8
0 -15 -7 -15 -15 0 -8 9 -15 20 -15 11 0 20 5 20 10 0 6 4 10 10 10 5 0 8 -19
6 -45 -3 -24 0 -47 5 -51 5 -3 7 -9 4 -14 -3 -5 9 -13 27 -18 23 -6 34 -15 38
-33 4 -14 14 -25 27 -27 12 -2 29 -14 38 -28 12 -19 20 -23 29 -14 10 8 15 5
19 -11 4 -14 11 -20 21 -16 8 3 26 0 40 -6 19 -9 24 -17 19 -35 -4 -19 0 -25
25 -34 17 -7 34 -21 37 -32 3 -12 8 -16 11 -10 3 8 17 6 44 -7 43 -21 47 -28
28 -47 -9 -9 -7 -12 9 -12 35 0 53 -11 53 -31 0 -14 -7 -19 -30 -19 -20 0 -30
-5 -30 -15 0 -8 9 -15 21 -15 18 0 19 -2 6 -20 -18 -26 -10 -70 12 -70 10 0
12 -3 5 -8 -7 -4 -2 -15 16 -29 18 -15 31 -19 41 -12 12 8 11 12 -6 25 -19 14
-19 15 3 20 29 8 29 24 0 21 -20 -2 -23 2 -22 31 1 17 -2 32 -7 32 -5 0 -9 7
-9 15 0 15 21 20 34 8 4 -4 26 -6 49 -4 40 2 41 2 22 -13 -23 -18 -13 -21 17
-5 15 8 22 8 28 -1 4 -6 13 -12 21 -13 8 -2 19 -5 24 -8 20 -11 60 -4 60 11 0
8 -11 16 -25 18 -37 5 -50 22 -17 22 20 0 27 5 27 20 0 11 5 20 10 20 6 0 10
7 10 15 0 18 -12 19 -28 3 -9 -9 -12 -7 -12 9 0 12 -8 24 -17 27 -10 2 0 2 22
-1 47 -7 78 -21 71 -32 -3 -4 6 -6 20 -3 24 4 24 6 9 28 -8 13 -11 24 -6 24 5
0 12 -6 15 -12 5 -10 7 -10 12 0 3 6 23 12 44 12 51 0 60 17 18 32 l-33 12 30
6 c16 3 34 14 40 25 6 11 17 21 25 23 8 2 22 10 30 17 10 9 31 13 55 11 22 -2
48 0 58 5 11 7 17 6 17 -1 0 -7 6 -8 19 0 11 5 33 10 48 10 16 0 34 5 41 12 9
9 12 9 12 0 0 -8 7 -9 26 -2 14 6 43 10 64 10 21 0 42 5 45 10 3 6 19 10 34
10 15 0 32 5 38 11 5 5 21 11 34 13 27 3 137 54 145 67 2 4 11 6 19 2 8 -3 15
0 15 5 0 6 21 21 48 33 26 13 57 35 68 48 19 22 24 24 38 12 14 -12 16 -12 11
0 -3 8 4 24 15 36 11 12 20 27 20 33 0 14 17 13 23 -2 2 -8 16 0 36 21 26 28
34 32 41 20 7 -10 9 -5 7 16 -1 18 3 30 11 30 7 0 21 15 32 33 11 17 24 31 30
30 6 -2 23 15 38 37 16 22 30 38 32 36 9 -8 50 20 50 33 0 8 7 16 15 20 8 3
20 17 27 31 6 14 16 24 22 22 12 -4 46 35 46 52 0 6 9 11 20 11 11 0 20 5 20
10 0 6 12 23 28 40 15 16 45 55 67 86 22 31 50 68 63 82 12 14 22 31 22 39 0
7 6 16 14 19 8 3 17 19 20 36 3 18 14 40 22 50 9 9 18 29 20 43 1 14 7 31 12
38 6 7 20 46 32 87 39 139 41 136 25 -45 -6 -77 -10 -143 -8 -147 4 -8 117 64
128 82 16 25 -9 29 -37 5 -28 -24 -58 -33 -58 -17 0 4 25 34 55 67 30 33 64
79 76 103 23 46 33 51 48 25 9 -15 11 -12 12 17 0 19 0 51 -1 70 -2 32 5 41
70 100 68 62 72 69 91 140 10 41 23 78 29 84 5 5 31 17 57 26 43 14 52 23 79
75 24 43 35 82 43 148 13 98 16 107 35 107 8 0 19 7 26 15 11 13 8 15 -15 13
-22 -2 -31 -11 -42 -38 -8 -19 -25 -57 -39 -83 -13 -27 -24 -63 -24 -80 0 -37
-35 -101 -50 -92 -6 4 -8 11 -5 16 3 5 0 7 -7 4 -7 -3 -24 -22 -37 -43 -61
-93 -114 -130 -201 -142 -85 -12 -117 1 -126 48 -12 65 -37 92 -40 44 -1 -10
-2 -27 -3 -40 -1 -15 -6 -22 -17 -20 -10 2 -19 -4 -21 -12 -4 -12 -3 -12 5 -1
14 20 22 -1 15 -42 -3 -21 -10 -34 -15 -30 -7 3 -9 -10 -6 -35 2 -22 0 -38 -4
-36 -4 3 -5 -10 -3 -28 9 -72 -67 -324 -124 -408 -21 -30 -40 -63 -44 -73 -4
-10 -20 -23 -37 -28 -36 -13 -40 -33 -6 -27 18 4 23 1 19 -9 -3 -8 -12 -12
-20 -9 -20 8 -43 -18 -43 -48 0 -29 -24 -35 -38 -10 -8 14 -10 13 -15 -5 -3
-12 -1 -19 4 -15 15 9 10 -13 -6 -26 -8 -7 -14 -20 -13 -29 2 -8 -4 -16 -12
-16 -8 0 -16 -10 -18 -23 -2 -13 -14 -28 -28 -34 -13 -6 -24 -20 -24 -30 0
-11 -4 -16 -10 -13 -5 3 -10 -2 -10 -12 0 -14 -2 -15 -9 -4 -7 11 -10 9 -16
-8 -3 -11 -10 -21 -15 -21 -5 0 -11 -9 -15 -19 -3 -11 -15 -23 -26 -26 -10 -4
-19 -15 -19 -26 0 -10 -5 -19 -11 -19 -6 0 -20 -11 -31 -25 -11 -14 -23 -23
-28 -20 -5 3 -11 -4 -15 -15 -3 -11 -12 -20 -20 -20 -7 0 -15 -6 -18 -12 -3
-10 -9 -10 -25 -1 -17 10 -21 9 -25 -8 -4 -13 -10 -17 -22 -13 -13 5 -15 2 -9
-20 3 -14 2 -26 -3 -26 -5 0 -23 -13 -39 -30 -34 -35 -44 -37 -44 -11 0 11 -5
23 -11 27 -7 4 -10 -3 -9 -17 4 -47 1 -54 -13 -35 -13 18 -14 18 -21 1 -5 -14
-9 -15 -20 -6 -12 10 -14 8 -9 -11 4 -22 4 -22 -11 -4 -16 19 -16 19 -16 -3 0
-25 -25 -55 -39 -46 -5 3 -12 -4 -16 -15 -3 -11 -9 -20 -13 -20 -10 0 -32 51
-32 73 0 10 -4 15 -10 12 -12 -7 -14 -45 -2 -45 4 0 13 -13 19 -29 12 -32 5
-34 -34 -13 -21 12 -23 11 -23 -12 0 -22 -24 -46 -45 -46 -4 0 -5 26 -2 58 2
31 2 45 0 29 -2 -15 -8 -25 -13 -22 -5 3 -12 -7 -16 -22 -9 -44 -12 -50 -13
-27 -1 22 -31 56 -31 35 0 -6 -4 -11 -10 -11 -5 0 -10 7 -10 17 0 9 -3 13 -7
10 -3 -4 -12 -2 -20 4 -10 9 -13 8 -13 -5 0 -10 -4 -14 -10 -11 -6 4 -10 -6
-11 -22 0 -15 -3 -23 -5 -16 -6 13 -34 6 -47 -11 -4 -6 -7 0 -5 14 2 14 9 25
17 25 8 0 16 6 19 13 2 6 -3 12 -12 12 -9 0 -16 -4 -16 -10 0 -5 -6 -10 -14
-10 -8 0 -18 -12 -23 -27 -9 -27 -10 -27 -15 -5 -4 12 -2 20 3 16 5 -3 9 -1 9
5 0 12 -20 26 -20 14 0 -4 -5 -15 -10 -23 -8 -13 -11 -12 -24 5 -14 19 -14 19
-33 -2 -11 -14 -35 -25 -60 -29 -40 -6 -42 -5 -45 22 -4 35 -48 44 -48 10 -1
-19 -1 -20 -11 -3 -7 12 -17 16 -30 12 -13 -4 -19 -2 -19 9 0 19 -16 21 -23 4
-3 -8 -6 -7 -6 4 -1 9 -6 20 -12 24 -8 5 -10 -1 -7 -19 6 -29 -10 -61 -19 -39
-2 6 -13 12 -24 12 -12 0 -19 7 -19 20 0 17 -3 18 -26 10 -35 -14 -34 -14 -34
25 0 42 -27 62 -48 37 -12 -15 -13 -15 -7 3 16 44 17 55 6 55 -6 0 -14 -7 -17
-15 -11 -26 -24 -16 -18 14 3 16 2 31 -4 35 -5 3 -9 -1 -8 -10 1 -19 -29 -42
-41 -30 -4 4 0 14 10 21 20 14 8 29 -16 19 -8 -3 -18 0 -23 7 -4 7 -2 15 4 17
7 2 12 12 12 22 0 10 6 20 13 23 6 2 9 8 4 13 -4 4 -21 -7 -37 -24 -34 -38
-42 -40 -38 -9 2 18 -2 23 -24 25 -32 4 -36 16 -11 31 10 5 14 13 10 18 -5 4
-13 0 -19 -11 -6 -10 -24 -32 -40 -50 l-30 -31 21 38 c26 47 26 47 0 47 -21 0
-21 1 -4 26 24 37 14 38 -33 4 -35 -25 -40 -26 -37 -10 3 17 0 18 -23 9 -26
-9 -26 -9 6 21 32 30 43 48 20 33 -7 -4 -17 -8 -23 -8 -5 0 -25 -8 -43 -18
-19 -10 -36 -16 -39 -14 -2 3 5 8 16 12 41 13 20 31 -30 27 -9 -1 -21 9 -27
21 -6 12 -11 16 -11 9 -1 -7 -6 -10 -11 -7 -20 12 10 36 30 25 19 -10 30 -4
30 17 0 7 -7 13 -15 13 -8 0 -15 5 -15 11 0 8 -11 9 -31 5 -27 -5 -30 -4 -19
9 7 8 18 15 25 15 7 0 16 7 19 16 9 23 7 34 -4 34 -5 0 -10 -6 -10 -14 0 -8
-9 -18 -21 -21 -25 -8 -39 2 -15 11 9 3 16 12 16 20 0 19 -7 18 -41 -7 -18
-13 -36 -18 -49 -14 -26 8 -26 25 0 25 11 0 20 5 20 10 0 6 8 10 18 10 11 0
18 8 19 20 2 23 -22 27 -31 5 -3 -8 -16 -15 -28 -15 -13 0 -18 3 -12 8 17 11
26 49 14 57 -18 11 -32 -5 -18 -23 11 -13 11 -15 -4 -10 -11 5 -18 0 -22 -15
-3 -12 -1 -23 4 -25 16 -6 11 -45 -9 -71 l-18 -24 -7 27 c-7 27 -31 35 -39 14
-4 -8 -6 -7 -6 3 -1 9 9 23 22 31 15 11 23 27 25 53 2 33 0 37 -19 32 -12 -3
-22 0 -26 9 -3 8 -9 11 -15 8 -5 -3 -12 4 -15 16 -4 16 -8 18 -14 8 -6 -9 -9
-7 -9 10 0 12 4 22 9 22 19 0 41 32 41 61 0 16 5 29 11 29 7 0 9 -9 5 -22 -15
-48 -18 -105 -7 -112 6 -4 11 0 11 8 0 9 11 26 25 38 27 23 34 72 13 82 -10 3
-9 8 3 18 14 12 10 13 -29 13 -45 -1 -47 -2 -49 -34 -2 -18 -9 -40 -15 -49
-17 -23 -48 -27 -48 -7 0 8 -7 15 -15 15 -8 0 -15 8 -15 18 0 14 2 15 10 2 11
-18 25 -7 17 14 -4 9 -13 13 -22 10 -19 -8 -19 3 0 22 8 9 15 11 15 5 0 -6 6
-11 14 -11 18 0 27 -23 15 -41 -13 -20 -11 -29 6 -29 19 0 21 66 3 72 -9 3 -8
10 5 23 10 9 17 24 15 33 -4 21 -28 28 -28 8 0 -9 -6 -16 -14 -16 -8 0 -17 -6
-19 -12 -4 -10 -8 -9 -16 2 -6 8 -6 16 -2 18 5 2 7 12 4 22 -3 11 -9 17 -15
14 -5 -3 -8 6 -6 22 4 39 -13 39 -41 -1 -13 -19 -27 -33 -31 -30 -8 5 -23 -23
-38 -70 -6 -16 -11 -22 -11 -13 -1 9 -4 25 -7 35 -5 15 -4 16 6 3 9 -12 11 -7
7 25 -3 22 -3 34 0 28 7 -20 23 -15 23 6 0 47 26 69 32 29 4 -22 5 -21 18 7 8
17 15 31 16 33 1 2 12 -2 24 -8 20 -11 21 -10 10 10 -7 13 -17 19 -27 16 -12
-5 -14 0 -11 24 5 33 -11 42 -19 10 -3 -11 -9 -17 -14 -14 -5 3 -6 16 -3 29 4
16 0 30 -10 41 -16 15 -17 14 -11 -12 5 -28 5 -28 -5 -4 -8 18 -8 30 1 47 6
12 8 30 4 40 -6 16 -8 16 -16 -4 -13 -35 -28 -27 -35 18 -8 49 -23 34 -25 -26
-1 -39 -2 -39 -9 -10 -8 30 -8 30 -9 -8 -1 -24 -5 -36 -12 -32 -6 5 -8 22 -4
47 5 27 4 38 -3 34 -6 -4 -15 2 -21 11 -10 17 -10 17 -12 -2 0 -15 -3 -12 -9
9 -5 16 -7 41 -4 56 4 19 1 29 -10 33 -16 6 -21 -9 -17 -58 2 -16 0 -17 -8 -6
-8 12 -10 12 -13 0 -3 -8 -3 -3 -1 11 1 14 -1 32 -7 40 -8 13 -10 12 -11 -5 0
-11 -3 -15 -5 -8 -3 6 2 23 11 36 11 18 13 27 5 32 -6 4 -9 14 -6 24 5 13 3
13 -8 -2 -22 -28 -24 -19 -29 108 -1 19 -6 35 -11 35 -4 0 -5 7 -2 16 4 9 2
22 -3 28 -5 6 -15 49 -21 96 -6 47 -18 110 -25 140 -28 109 -55 312 -55 409 0
123 20 272 31 226 4 -16 7 -24 8 -17 0 7 6 10 11 7 6 -3 10 -1 10 4 0 6 -4 11
-10 11 -5 0 -7 7 -3 16 4 10 9 12 16 5 17 -17 47 6 47 37 1 23 2 25 11 10 5
-10 15 -18 20 -18 12 0 39 -25 39 -37 0 -4 9 -14 20 -20 17 -11 18 -10 13 5
-5 13 -2 13 15 -4 13 -14 19 -29 15 -43 -7 -26 13 -28 22 -2 3 12 24 26 52 35
55 19 56 19 48 6 -11 -18 27 -24 40 -7 11 15 19 16 66 6 30 -6 70 -12 90 -13
19 -1 41 -6 47 -10 7 -4 14 -1 17 6 4 10 43 13 163 14 86 0 182 4 212 8 30 5
88 9 129 11 40 2 78 8 84 14 22 22 34 11 33 -31 -1 -37 2 -43 24 -48 17 -4 21
-8 12 -14 -6 -4 -12 -11 -12 -17 0 -15 38 -10 56 9 17 16 18 16 10 -3 -4 -11
-13 -39 -19 -63 -8 -31 -15 -41 -26 -37 -15 6 -31 -11 -31 -33 0 -7 8 -12 18
-10 9 1 18 -2 20 -7 1 -6 -13 -11 -32 -13 -33 -3 -34 -5 -26 -28 6 -14 10 -33
10 -42 0 -14 -2 -14 -13 2 -12 16 -14 16 -26 2 -11 -13 -11 -16 0 -16 9 -1 8
-4 -4 -11 -10 -6 -21 -8 -24 -6 -8 9 -113 -116 -120 -143 -3 -14 -12 -31 -20
-38 -7 -7 -13 -26 -13 -40 0 -15 -9 -44 -20 -65 -21 -39 -27 -121 -10 -132 6
-3 10 -17 10 -31 0 -14 5 -35 11 -46 7 -13 7 -23 2 -27 -6 -3 -13 -24 -16 -45
-4 -26 -16 -47 -34 -62 -28 -24 -50 -26 -46 -5 4 17 -18 13 -66 -10 -24 -11
-49 -18 -57 -15 -8 3 -14 1 -14 -5 0 -6 -7 -8 -16 -5 -12 4 -14 1 -9 -14 4
-11 2 -20 -3 -20 -5 0 -12 9 -15 20 -8 31 -30 25 -24 -7 6 -30 -7 -47 -44 -56
-26 -7 -86 -83 -75 -95 3 -3 6 0 6 6 0 7 4 12 9 12 6 0 7 -16 4 -35 -4 -23 -2
-35 6 -35 6 0 11 5 11 10 0 6 7 10 15 10 7 0 19 8 24 18 8 13 9 9 4 -18 -3
-19 -13 -43 -21 -53 -8 -9 -12 -20 -9 -23 3 -4 2 -15 -4 -26 -14 -27 -2 -36
16 -12 14 19 15 19 21 -2 4 -16 13 -20 40 -20 19 1 34 4 34 8 0 3 9 4 20 1 11
-3 20 -9 20 -13 0 -14 95 -44 145 -45 38 -1 75 -13 155 -52 110 -54 135 -62
213 -70 96 -10 180 33 138 71 -10 9 -20 13 -24 10 -8 -9 -47 6 -47 18 0 5 7 8
15 4 10 -3 15 1 15 14 0 27 18 35 39 16 10 -9 21 -13 25 -9 4 5 11 8 14 8 4 1
20 4 35 8 17 5 34 4 41 -2 13 -11 28 -9 70 8 15 6 33 10 40 9 6 -1 25 1 41 5
17 4 46 9 65 12 19 3 60 10 90 15 30 5 80 12 110 14 30 3 79 8 108 12 38 5 56
3 61 -5 6 -9 23 -5 67 14 66 29 92 28 172 -5 42 -18 57 -21 76 -12 18 8 27 7
39 -6 26 -26 32 -5 14 50 -12 37 -13 54 -5 59 8 5 8 11 -1 20 -6 8 -19 23 -27
34 -15 19 -15 19 -11 -10 l5 -30 -30 35 c-29 34 -29 35 -23 8 7 -28 -9 -41
-18 -15 -4 9 -7 9 -17 0 -11 -10 -17 -8 -32 9 l-18 21 0 -24 c0 -15 -9 -29
-22 -36 -92 -48 -91 -48 -208 -48 -108 0 -116 -1 -124 -21 -9 -19 -20 -22
-110 -26 -82 -4 -110 -2 -146 12 -31 12 -51 15 -62 9 -12 -6 -19 -5 -25 5 -4
7 -24 16 -43 19 -125 21 -153 26 -187 37 -21 7 -44 19 -50 28 -9 11 -13 12
-13 3 0 -16 -42 -10 -48 7 -2 8 2 10 14 5 12 -4 15 -3 10 5 -5 8 0 12 13 12
12 0 21 6 21 13 0 21 16 37 40 42 13 2 26 8 29 13 3 4 15 8 26 8 11 0 31 4 44
8 22 8 23 6 19 -18 -6 -32 17 -57 27 -27 8 26 35 36 35 12 0 -13 10 -20 37
-24 21 -4 42 -2 46 2 5 5 15 7 22 5 14 -6 49 42 40 55 -3 5 0 11 5 13 16 5
-17 66 -39 73 -10 3 -26 3 -35 -1 -9 -3 -16 -1 -16 6 0 6 5 8 10 5 6 -3 10 -1
10 5 0 8 -13 10 -41 5 l-42 -7 5 31 c5 36 -5 45 -64 56 -30 6 -107 65 -84 65
4 0 -2 10 -13 22 -11 11 -18 24 -16 28 2 4 -8 13 -23 21 -15 7 -36 21 -48 31
-28 25 -109 20 -109 -6 0 -20 -39 -45 -71 -46 -29 0 -44 19 -44 56 0 18 -6 34
-12 37 -10 3 -9 8 2 22 13 16 13 18 0 13 -8 -2 -16 -17 -18 -31 -2 -15 -8 -27
-14 -27 -6 0 -7 7 -3 18 4 9 10 36 12 60 5 37 8 42 32 42 45 0 76 -22 73 -52
-4 -30 13 -46 22 -21 9 22 -11 80 -30 87 -9 3 -27 3 -41 0 -18 -5 -24 -3 -19
5 4 6 18 11 32 11 13 0 24 6 25 13 0 6 4 2 9 -10 12 -28 27 -29 35 -3 3 11 10
20 15 20 4 0 13 23 20 50 7 28 16 53 21 56 5 3 9 13 9 24 0 10 7 21 16 24 11
4 15 14 12 30 -4 18 0 26 16 30 11 3 17 8 13 12 -9 9 22 44 38 44 8 0 13 15
13 40 0 22 3 44 6 49 3 5 -1 12 -10 15 -11 4 -13 10 -6 19 15 19 21 67 12 98
-5 15 -5 30 -2 34 4 4 8 79 9 168 1 89 3 179 6 199 3 29 0 38 -15 41 -10 3
-18 14 -18 26 0 33 -1 35 -17 53 -18 20 -37 14 -29 -9 3 -8 1 -11 -5 -8 -5 4
-7 19 -4 34 7 32 -10 85 -25 76 -15 -9 -52 5 -47 18 5 17 -19 38 -36 31 -15
-5 -31 21 -22 36 5 9 -103 46 -125 43 -8 -1 -22 0 -30 4 -19 8 -32 10 -112 18
-42 4 -68 11 -72 20 -4 10 -13 12 -35 5 -30 -8 -45 3 -18 13 24 10 -32 7 -59
-3 -30 -12 -47 -4 -24 10 14 9 13 11 -9 14 -5 0 -13 4 -17 9 -4 4 -16 7 -26 7
-14 0 -16 4 -9 18 6 9 13 30 16 45 4 19 11 27 20 23 9 -3 15 3 17 17 2 13 17
29 38 40 19 10 34 22 33 27 -4 14 38 60 55 60 9 0 13 7 9 20 -3 11 -1 18 4 14
5 -3 9 1 9 9 0 8 9 26 21 41 13 16 16 26 8 26 -7 0 -10 2 -7 5 3 3 36 -2 74
-11 146 -34 287 7 382 111 l50 54 16 -40 c9 -21 35 -60 59 -86 87 -94 171
-125 279 -103 55 12 70 21 115 65 33 34 57 69 69 103 18 50 19 51 32 29 12
-21 13 -20 6 8 -16 62 -7 142 21 190 29 48 41 58 32 24 -5 -17 -3 -18 11 -7
13 11 15 11 9 -4 -3 -10 -3 -18 2 -18 5 0 14 -15 21 -32 32 -88 47 -112 97
-159 29 -28 51 -54 48 -59 -3 -4 3 -6 12 -4 18 5 186 -75 212 -101 18 -17 7
-32 -32 -45 l-32 -10 38 6 c33 4 37 2 37 -16 0 -28 34 -92 71 -135 19 -22 68
-54 124 -81 50 -25 104 -56 121 -69 l29 -23 -67 22 c-37 12 -70 25 -74 29 -4
4 -17 7 -28 7 -18 0 -16 -4 12 -21 17 -12 32 -25 32 -30 0 -5 -10 -3 -22 5
-20 12 -182 57 -205 56 -4 -1 3 -7 17 -15 23 -14 21 -15 -40 -10 -48 4 -59 3
-42 -4 12 -6 22 -12 22 -15 0 -7 -63 -2 -75 6 -22 13 -75 19 -75 9 0 -6 17
-11 37 -11 74 0 23 -10 -78 -15 -90 -5 -205 -19 -247 -31 -7 -2 -10 -8 -7 -14
3 -5 0 -10 -8 -10 -7 0 -31 -9 -53 -19 -41 -20 -71 -66 -73 -113 -1 -41 15
-42 38 -3 11 19 26 35 33 35 8 0 9 -3 3 -8 -15 -11 -37 -53 -31 -60 3 -3 6 -1
6 5 0 6 9 13 20 16 14 3 18 1 13 -6 -4 -7 -9 -22 -11 -35 -2 -20 0 -22 18 -12
21 11 27 1 9 -17 -14 -14 40 -5 59 10 7 5 38 12 70 14 49 4 60 1 76 -16 17
-19 17 -21 3 -21 -10 0 -17 -4 -17 -10 0 -5 -8 -10 -17 -10 -21 0 -97 -49
-130 -82 -31 -31 -30 -58 2 -58 23 0 30 -10 25 -35 -1 -5 8 -1 19 9 30 28 37
13 10 -23 -24 -33 -20 -48 16 -54 11 -1 26 -6 33 -10 6 -5 12 -6 12 -2 0 3 9
1 20 -5 11 -6 20 -16 19 -23 0 -9 -2 -9 -6 1 -2 6 -11 12 -19 12 -9 0 -12 -4
-9 -10 3 -5 1 -10 -4 -10 -8 0 -8 -6 0 -18 12 -19 96 -62 121 -62 8 0 19 -5
26 -12 9 -9 16 -8 30 5 10 9 24 17 32 17 7 0 20 8 29 18 21 23 71 40 106 36
16 -2 34 1 41 7 7 5 16 9 20 8 5 -1 22 3 39 10 16 7 40 9 53 6 21 -5 24 -3 19
15 -6 22 -7 21 50 5 12 -3 24 -1 28 5 8 13 53 5 93 -16 16 -8 28 -10 30 -4 2
5 24 7 50 4 44 -5 46 -4 28 10 -11 9 -23 16 -28 16 -4 0 -8 5 -8 10 0 6 11 8
26 4 22 -6 25 -4 18 7 -17 28 -130 141 -159 159 -58 36 -152 59 -302 75 -35 4
-63 11 -63 16 0 5 -12 9 -27 9 -21 0 -24 3 -13 10 23 15 3 24 -26 11 -14 -6
-29 -9 -34 -6 -5 3 -11 1 -15 -5 -3 -5 -18 -10 -33 -9 -24 0 -25 1 -7 8 11 5
23 7 28 4 4 -2 7 0 7 6 0 5 26 13 58 17 31 3 80 15 107 25 28 10 64 18 80 17
17 0 63 3 103 7 50 4 72 3 72 -5 0 -7 19 -10 53 -8 28 1 77 1 107 0 53 -3 54
-3 30 -17 -14 -8 -23 -15 -20 -15 3 -1 24 -4 48 -6 24 -3 53 -9 65 -14 21 -8
21 -9 2 -11 -11 -1 -25 -1 -32 0 -6 1 -14 -3 -18 -9 -4 -6 4 -10 19 -10 13 0
31 -7 40 -15 22 -22 61 -35 77 -24 10 6 8 9 -11 9 -18 0 -21 3 -12 12 9 9 18
9 39 0 l28 -12 -27 24 c-31 28 -36 41 -13 32 19 -7 19 4 -1 32 -8 12 -12 22
-8 22 4 0 -1 9 -10 19 -13 15 -14 20 -4 24 9 4 8 6 -4 6 -9 1 -19 10 -23 21
-4 12 -22 24 -45 31 -22 7 -47 23 -55 36 -9 12 -22 23 -31 23 -8 0 -17 7 -20
15 -4 8 -33 31 -65 51 -32 20 -59 38 -59 39 0 1 20 3 45 3 52 1 121 29 148 60
l18 20 45 -25 c27 -15 44 -32 44 -43 0 -10 4 -21 9 -24 12 -8 23 -62 25 -126
1 -30 8 -65 15 -78 7 -13 11 -33 9 -46 -1 -12 5 -35 15 -49 10 -15 15 -32 11
-38 -3 -6 1 -18 9 -27 8 -9 17 -29 21 -44 8 -37 53 -101 61 -89 3 6 -2 25 -11
43 l-17 33 29 -25 c48 -41 54 -52 79 -135 41 -136 56 -224 62 -375 4 -112 2
-165 -11 -231 -18 -96 -20 -145 -7 -153 5 -3 11 10 14 30 3 19 24 57 46 86 34
42 41 58 41 94 0 25 5 44 11 44 6 0 8 -8 5 -17 -3 -10 -2 -24 2 -31 7 -9 13
-8 27 8 24 26 45 25 46 -2 0 -13 3 -17 6 -10 11 28 18 8 17 -56 0 -37 -6 -79
-13 -94 -15 -30 -9 -58 13 -58 22 0 76 50 76 70 0 10 6 25 14 33 10 10 14 36
13 85 0 61 -3 72 -18 72 -9 0 -19 7 -23 15 -3 8 -17 15 -31 15 -24 0 -25 2
-25 60 0 56 -2 60 -31 75 -22 12 -34 13 -43 6 -11 -9 -15 -2 -19 31 -3 23 -1
50 4 59 5 10 9 29 9 43 0 37 10 56 31 56 22 0 24 11 7 28 -10 10 -5 11 22 6
19 -4 38 -11 41 -16 9 -14 119 -7 119 7 0 18 37 48 50 40 7 -4 10 -16 7 -26
-3 -12 2 -23 15 -30 14 -8 17 -14 9 -23 -6 -7 -7 -16 -3 -20 4 -4 8 -24 10
-44 8 -116 18 -201 22 -205 3 -3 18 6 35 20 41 36 64 128 53 215 -18 137 -20
142 -52 170 -38 34 -58 35 -99 5 -35 -26 -118 -60 -125 -52 -3 3 0 23 7 45 12
40 31 46 31 10 0 -10 5 -22 10 -25 6 -4 10 10 10 34 0 39 1 40 75 80 65 36 77
40 95 29 23 -15 47 -62 67 -133 8 -27 19 -66 25 -85 17 -55 17 -221 0 -248
-23 -36 -7 -37 50 -5 75 43 93 78 91 176 -1 44 3 91 8 105 l9 27 -19 -25 -20
-25 -48 48 c-46 46 -47 49 -29 63 24 17 97 19 114 2 9 -9 12 -9 12 0 0 16 -33
32 -67 32 -15 0 -35 4 -43 10 -15 9 -10 18 48 79 12 13 22 27 22 31 0 3 25 14
55 24 30 9 68 28 85 43 31 26 66 81 57 90 -3 2 -8 -5 -12 -16 -9 -31 -94 -101
-122 -101 -23 0 -23 1 -6 20 29 31 85 149 91 192 4 35 7 38 20 25 8 -9 21 -37
28 -64 l13 -48 0 38 c1 40 -17 85 -43 106 -23 19 -20 98 4 146 11 22 20 55 20
74 0 19 5 61 12 93 10 49 9 65 -5 112 -10 31 -30 70 -44 87 -25 29 -26 37 -28
151 -1 111 -3 122 -23 138 -12 10 -22 28 -22 39 0 17 -4 20 -23 16 -22 -6 -24
-2 -37 62 -11 52 -23 78 -50 108 -45 51 -72 74 -86 75 -6 0 -17 7 -24 15 -11
13 -9 20 13 43 15 16 27 33 27 39 0 7 8 18 19 25 10 7 21 23 25 35 8 26 -17
43 -64 43 -20 0 -33 6 -37 18 -13 35 -36 52 -74 52 -28 0 -39 5 -44 19 -3 11
-19 36 -35 56 -17 21 -30 42 -30 47 0 6 -10 18 -22 27 -22 18 -22 18 -3 57 27
56 24 120 -7 174 -14 25 -29 67 -33 95 -9 63 -27 98 -76 146 -38 37 -69 50
-69 29 0 -5 6 -10 14 -10 40 0 115 -101 116 -154 0 -15 -14 -6 -57 35 -32 30
-69 61 -83 70 -21 14 -23 19 -12 32 11 13 10 16 -7 22 -12 3 -21 11 -21 17 0
5 -7 8 -15 5 -8 -4 -17 -2 -20 3 -4 6 -17 10 -30 10 -13 0 -46 5 -72 10 -44
10 -51 16 -85 70 -42 68 -87 100 -138 99 -33 0 -33 -1 15 -14 31 -8 59 -24 74
-42 l24 -28 -34 -6 c-22 -4 -26 -7 -11 -8 29 -1 63 -36 56 -56 -9 -24 -47 -28
-89 -11 l-38 16 24 27 24 26 -25 -5 c-14 -3 -33 -9 -42 -13 -13 -5 -18 -2 -18
9 0 10 -7 16 -17 14 -27 -5 -28 31 -1 60 l23 26 -28 -17 c-28 -18 -47 -16 -47
5 0 6 -12 27 -26 46 -22 28 -32 33 -56 30 -25 -4 -33 1 -53 31 -50 78 -105
111 -186 111 -28 0 -41 6 -53 25 -21 32 -107 81 -168 95 -26 7 -48 15 -48 19
0 10 -38 10 -89 0z m189 -50 c47 -21 85 -52 101 -80 5 -11 -18 -3 -69 23 -72
37 -83 39 -163 39 -48 0 -98 -3 -112 -6 -14 -4 -34 -2 -44 3 -17 10 -16 11 7
20 45 17 64 20 150 21 66 0 95 -4 130 -20z m-397 -29 c4 -3 -4 -13 -18 -20
-18 -9 -29 -11 -33 -4 -4 6 -15 13 -25 17 -31 12 -9 26 31 20 20 -3 40 -9 45
-13z m-133 -10 c-8 -5 -23 -10 -32 -10 -9 0 -21 -6 -25 -14 -10 -17 -65 -28
-60 -12 5 17 69 46 102 46 23 0 27 -3 15 -10z m230 -20 c0 -5 18 -10 40 -10
29 0 40 -4 40 -15 0 -18 12 -19 27 -4 12 12 33 4 33 -13 0 -5 -7 -7 -16 -4 -9
4 -23 1 -30 -5 -8 -6 -14 -9 -14 -5 0 4 -10 1 -22 -7 -13 -7 -30 -12 -38 -11
-8 1 -20 2 -27 3 -6 0 -17 16 -24 34 -7 17 -14 35 -17 40 -2 4 8 7 22 7 14 0
26 -4 26 -10z m223 3 c-7 -2 -19 -2 -25 0 -7 3 -2 5 12 5 14 0 19 -2 13 -5z
m47 -13 c0 -5 -8 -10 -17 -10 -15 0 -16 2 -3 10 19 12 20 12 20 0z m-332 -29
c3 -8 -1 -12 -9 -9 -7 2 -15 10 -17 17 -3 8 1 12 9 9 7 -2 15 -10 17 -17z
m-278 -25 c0 -3 -4 -8 -10 -11 -5 -3 -10 -1 -10 4 0 6 5 11 10 11 6 0 10 -2
10 -4z m899 -35 c21 -11 45 -31 54 -45 21 -32 21 -36 1 -36 -9 0 -22 -7 -29
-17 -14 -18 -42 -12 -51 12 -4 8 -21 30 -40 49 -19 19 -34 39 -34 45 0 18 57
13 99 -8z m-638 -76 c-18 -8 -36 -15 -40 -15 -13 1 45 29 59 29 8 0 0 -6 -19
-14z m775 -103 c-9 -2 -24 -2 -33 0 -15 3 -15 5 2 22 18 18 19 18 32 0 12 -16
12 -19 -1 -22z m164 -93 c0 -5 -4 -9 -10 -9 -5 0 -10 7 -10 16 0 8 5 12 10 9
6 -3 10 -10 10 -16z m-280 -34 c-7 -14 -17 -25 -22 -25 -5 0 -1 13 8 30 21 35
33 31 14 -5z m310 -5 c0 -5 -2 -10 -4 -10 -3 0 -8 5 -11 10 -3 6 -1 10 4 10 6
0 11 -4 11 -10z m210 -23 c0 -23 -17 -47 -32 -47 -9 0 -11 32 -2 54 9 24 34
19 34 -7z m-176 -24 c6 -15 -8 -32 -26 -33 -14 0 -19 22 -8 35 16 19 26 19 34
-2z m249 0 c8 -7 -23 -32 -41 -33 -10 0 -10 5 -2 20 11 20 31 26 43 13z
m-3204 -17 c8 -10 9 -16 1 -21 -13 -8 -30 3 -30 21 0 18 14 18 29 0z m247 -37
c-9 -20 -15 -27 -16 -16 0 20 19 61 26 54 2 -2 -2 -19 -10 -38z m2992 24 c-10
-2 -18 -9 -18 -15 0 -6 -3 -9 -6 -5 -10 10 6 27 24 26 15 -1 15 -2 0 -6z
m-3309 -84 c-25 -16 -30 -10 -23 29 10 56 17 61 27 18 7 -29 6 -40 -4 -47z
m2726 71 c-11 -5 -29 -9 -40 -9 -17 -1 -17 1 -5 9 8 5 26 9 40 9 23 0 23 -1 5
-9z m679 -97 c19 2 50 -34 60 -69 5 -15 1 -24 -11 -28 -10 -4 -14 -4 -11 0 4
3 2 11 -5 18 -21 19 -86 50 -93 44 -3 -4 8 -13 24 -22 44 -23 47 -44 12 -77
-31 -30 -51 -40 -31 -15 10 12 8 17 -9 26 -12 6 -24 9 -28 6 -3 -3 -1 -6 5 -6
5 0 10 -7 10 -16 0 -15 -2 -15 -13 1 -15 20 -8 45 12 45 8 0 14 5 14 11 0 5
-4 8 -9 5 -12 -8 -34 21 -26 34 3 6 11 8 16 5 5 -4 9 -2 9 4 0 5 -9 13 -20 16
-11 3 -20 13 -20 20 0 18 71 25 86 8 5 -6 18 -11 28 -10z m-3404 -18 c-7 -9
-15 -13 -17 -11 -6 6 20 36 26 30 2 -2 -2 -10 -9 -19z m3520 -39 c-1 -20 -2
-20 -15 4 -19 33 -19 46 0 30 8 -7 15 -22 15 -34z m-3645 -36 c3 -5 2 -18 -4
-27 -9 -17 -10 -17 -16 0 -4 9 -16 17 -26 17 -10 0 -19 5 -19 10 0 13 57 13
65 0z m29 -25 c-4 -8 -8 -15 -10 -15 -2 0 -4 7 -4 15 0 8 4 15 10 15 5 0 7 -7
4 -15z m3246 5 c-20 -13 -33 -13 -25 0 3 6 14 10 23 10 15 0 15 -2 2 -10z
m425 -22 c16 -9 28 -88 19 -113 -5 -13 -13 4 -25 56 -18 72 -23 109 -12 79 3
-8 12 -18 18 -22z m-3810 8 c19 -8 35 -17 35 -19 0 -2 -27 -4 -60 -3 -33 1
-60 5 -60 9 0 6 29 22 48 26 1 1 18 -6 37 -13z m3692 -52 c3 -9 -3 -24 -17
-37 -20 -19 -22 -19 -16 -4 3 10 6 27 6 38 0 23 18 25 27 3z m-3674 -11 c-7
-2 -19 -2 -25 0 -7 3 -2 5 12 5 14 0 19 -2 13 -5z m-233 -11 c0 -31 -53 -110
-89 -134 -22 -15 -41 -22 -41 -17 0 20 33 72 72 115 39 42 58 54 58 36z m3840
-4 c0 -22 -17 -41 -30 -33 -8 5 -7 12 6 26 20 22 24 23 24 7z m170 -2 c0 -20
-31 -90 -43 -98 -6 -4 -16 1 -23 10 -16 23 0 52 26 47 12 -2 20 2 20 10 0 9
-6 12 -15 9 -20 -8 -19 6 3 22 22 17 32 17 32 0z m-1660 -97 c-12 -23 -24 -39
-26 -36 -5 5 35 77 42 77 3 0 -5 -18 -16 -41z m1585 -9 c3 -5 -1 -10 -10 -10
-9 0 -13 5 -10 10 3 6 8 10 10 10 2 0 7 -4 10 -10z m101 -61 c10 -20 11 -30 4
-27 -6 2 -11 8 -11 13 0 6 -9 13 -20 17 -11 4 -17 12 -14 18 11 18 24 11 41
-21z m-4103 4 c-13 -34 -34 -61 -53 -66 -30 -8 -26 29 6 58 32 29 56 33 47 8z
m4054 -29 c9 -24 -3 -27 -26 -7 -28 24 -29 48 0 33 11 -6 23 -18 26 -26z
m-4108 -75 c-7 -4 -17 -5 -22 -2 -5 3 -3 9 4 14 7 4 17 5 22 2 5 -3 3 -9 -4
-14z m191 -30 c0 -18 -4 -28 -10 -24 -5 3 -10 20 -10 36 0 18 4 28 10 24 6 -3
10 -20 10 -36z m-274 -1 c-3 -17 -11 -37 -16 -43 -18 -21 -110 -65 -110 -52 0
23 46 88 76 107 44 30 58 26 50 -12z m194 -3 c0 -8 -4 -15 -10 -15 -5 0 -7 7
-4 15 4 8 8 15 10 15 2 0 4 -7 4 -15z m4100 -24 c0 -6 -4 -13 -10 -16 -5 -3
-10 1 -10 9 0 9 5 16 10 16 6 0 10 -4 10 -9z m220 -82 c0 -17 -20 -49 -30 -49
-11 0 -14 43 -3 53 10 11 33 8 33 -4z m-4527 -14 c-1 -5 -13 -12 -25 -13 -13
-2 -30 -10 -38 -17 -10 -9 -21 -11 -30 -5 -12 7 -11 12 5 30 14 15 28 20 54
18 20 -2 35 -7 34 -13z m110 -26 c-4 -23 -1 -34 17 -49 13 -11 21 -22 18 -25
-10 -10 -35 6 -46 30 -12 27 -5 88 9 79 5 -2 6 -18 2 -35z m4351 32 c3 -5 0
-14 -8 -20 -10 -8 -16 -8 -25 3 -9 11 -9 15 1 19 20 8 26 8 32 -2z m-4583
-130 c-12 -22 -21 -47 -21 -56 0 -8 -4 -15 -10 -15 -19 0 -11 93 12 130 l21
35 9 -27 c7 -20 4 -36 -11 -67z m209 29 c0 -5 -4 -10 -10 -10 -5 0 -10 5 -10
10 0 6 5 10 10 10 6 0 10 -4 10 -10z m-147 -52 c56 -53 111 -89 128 -85 18 5
22 -24 5 -35 -6 -4 -7 -10 -3 -14 3 -4 12 -2 20 4 9 8 21 6 45 -5 l32 -16 -25
-23 c-20 -19 -30 -22 -45 -14 -25 13 -59 58 -66 87 -6 24 -19 30 -28 14 -3 -5
-10 -39 -15 -76 -6 -37 -12 -70 -16 -73 -21 -21 -95 114 -95 174 0 35 16 94
26 94 1 0 18 -15 37 -32z m237 -2 c0 -5 -7 -3 -15 4 -8 7 -12 17 -9 22 7 10
24 -9 24 -26z m-48 0 c13 -19 9 -24 -12 -19 -11 3 -20 9 -20 14 0 5 -11 7 -25
3 -25 -6 -36 10 -12 19 17 7 61 -4 69 -17z m4362 -2 c21 -8 21 -34 0 -34 -18
0 -46 25 -37 34 8 8 17 8 37 0z m-74 -43 c0 -5 3 -16 6 -25 3 -9 2 -16 -4 -16
-5 0 -12 11 -14 25 -3 14 -1 25 3 25 5 0 9 -4 9 -9z m130 -10 c0 -10 -42 -23
-49 -16 -2 3 4 12 15 19 19 14 34 12 34 -3z m61 -71 c7 -22 9 -43 6 -46 -7 -8
-63 11 -94 31 -23 15 -22 45 2 45 7 0 18 7 25 15 19 22 47 1 61 -45z m-4432
26 l22 -23 -33 2 c-18 2 -36 3 -40 4 -4 0 -12 10 -18 21 -10 18 -8 20 18 20
17 0 37 -9 51 -24z m2054 -17 c-6 -6 -9 -19 -6 -28 4 -13 2 -13 -7 2 -12 19
-6 37 13 37 8 0 8 -3 0 -11z m-2143 -99 c0 -3 -20 -13 -45 -22 l-45 -17 0 63
c0 34 3 65 6 69 6 6 84 -81 84 -93z m4449 45 c23 -23 7 -27 -38 -9 -50 20 -58
47 -9 33 18 -5 39 -15 47 -24z m-2149 14 c0 -5 5 -7 10 -4 6 3 10 -1 10 -9 0
-23 -94 -121 -108 -112 -7 4 -12 13 -11 19 0 9 2 9 6 0 9 -23 25 -14 18 10 -4
13 -3 17 2 10 12 -17 45 21 37 42 -7 18 12 20 20 3 3 -7 5 2 3 20 -2 17 0 32
5 32 4 0 8 -5 8 -11z m-571 -33 c10 -12 8 -13 -9 -9 -25 7 -37 23 -17 23 8 0
20 -6 26 -14z m175 -12 c9 -24 2 -26 -12 -4 -7 11 -8 20 -3 20 5 0 12 -7 15
-16z m146 6 c0 -5 -5 -10 -11 -10 -5 0 -7 5 -4 10 3 6 8 10 11 10 2 0 4 -4 4
-10z m-117 -15 c-3 -9 -8 -14 -10 -11 -3 3 -2 9 2 15 9 16 15 13 8 -4z m301
-1 c3 -8 2 -12 -4 -9 -6 3 -10 10 -10 16 0 14 7 11 14 -7z m-429 -114 c34 -49
40 -106 10 -103 -58 4 -135 47 -156 85 -12 22 -6 23 15 2 9 -8 16 -11 16 -5 0
11 58 -3 73 -18 11 -11 37 -3 37 10 0 5 -3 8 -7 7 -5 -1 -22 6 -40 15 -23 12
-31 22 -26 34 5 12 2 15 -10 10 -16 -6 -22 3 -18 26 1 5 -9 7 -21 5 -17 -2
-22 1 -20 15 2 9 -2 17 -8 17 -5 0 -10 -5 -10 -12 0 -6 -2 -9 -5 -6 -3 3 -3
12 0 21 10 23 135 -52 170 -103z m81 68 c23 -45 12 -43 -13 3 -12 21 -17 37
-12 33 5 -3 16 -19 25 -36z m140 34 c-3 -5 4 -18 14 -30 11 -12 20 -28 20 -37
0 -21 16 -19 39 4 12 12 18 28 15 43 -4 22 -4 22 7 -2 32 -72 43 -89 65 -99
29 -13 58 -3 98 35 23 22 30 24 38 13 8 -11 9 -10 4 4 -3 10 0 24 7 32 11 11
14 8 14 -15 0 -32 20 -63 35 -54 5 3 6 14 3 25 -9 28 5 86 16 68 12 -19 11
-32 -1 -24 -6 3 -7 -1 -4 -9 3 -9 10 -14 14 -11 5 3 10 0 13 -7 2 -7 2 -3 0
10 -3 20 3 24 35 21 4 0 6 -7 4 -15 -4 -22 16 -17 23 6 3 11 10 20 15 20 5 0
-7 -27 -26 -61 -24 -43 -34 -73 -34 -104 0 -172 -152 -281 -324 -231 -69 20
-121 69 -161 151 -28 56 -28 58 -9 72 16 12 17 15 4 23 -12 8 -10 10 10 10
l24 0 -22 16 c-36 25 -27 67 31 132 20 21 44 31 33 14z m-160 -123 l5 -44 -14
36 c-8 20 -23 49 -34 65 -36 53 -36 59 1 23 29 -28 39 -46 42 -80z m681 79
c-3 -8 -6 -5 -6 6 -1 11 2 17 5 13 3 -3 4 -12 1 -19z m-952 -8 c3 -5 1 -10 -4
-10 -6 0 -11 5 -11 10 0 6 2 10 4 10 3 0 8 -4 11 -10z m1005 -26 c0 -8 -4 -12
-10 -9 -5 3 -10 10 -10 16 0 5 5 9 10 9 6 0 10 -7 10 -16z m-941 -78 c9 -5 10
-11 3 -15 -7 -4 -8 -12 -1 -21 7 -13 10 -13 18 -1 7 11 13 10 34 -4 14 -9 45
-19 69 -22 23 -2 44 -6 46 -8 7 -7 -18 -43 -33 -49 -9 -3 -14 -2 -11 3 3 4 -3
16 -14 26 -11 10 -20 13 -20 7 0 -6 5 -14 10 -17 18 -11 11 -21 -25 -38 -43
-20 -49 -21 -39 -4 5 8 2 7 -9 -2 -14 -11 -28 -12 -74 -2 -31 6 -85 11 -120
11 -35 0 -63 4 -63 10 0 6 5 10 10 10 6 0 10 5 10 11 0 5 -4 7 -10 4 -17 -11
-11 1 15 29 14 15 25 34 25 42 0 7 4 14 9 14 5 0 12 12 15 26 5 20 12 25 26
21 12 -3 24 1 28 10 5 8 16 15 25 17 9 1 20 6 24 10 4 4 14 -8 23 -26 8 -18
21 -37 29 -42z m979 14 c2 -20 1 -22 -7 -10 -9 13 -11 12 -11 -5 0 -17 -2 -17
-10 -5 -5 8 -10 23 -10 33 0 29 34 16 38 -13z m-2901 -7 c-9 -9 -19 -14 -23
-11 -10 10 6 28 24 28 15 0 15 -1 -1 -17z m213 -13 c0 -5 -4 -10 -9 -10 -5 0
-16 -3 -25 -6 -9 -3 -16 -1 -16 4 0 9 16 17 43 21 4 0 7 -3 7 -9z m2723 -72
l26 -53 -39 42 c-42 44 -49 63 -26 63 7 0 25 -24 39 -52z m36 5 c12 -24 19
-43 17 -43 -8 0 -46 67 -46 80 0 18 4 13 29 -37z m-2872 24 c12 5 14 1 8 -18
-13 -42 -19 -47 -43 -38 -31 12 -40 39 -17 55 12 9 23 10 28 5 5 -5 16 -7 24
-4z m53 -28 c-10 -35 -17 -45 -25 -37 -7 7 15 68 25 68 5 0 5 -14 0 -31z m61
-32 c-16 -16 -26 0 -10 19 9 11 15 12 17 4 2 -6 -1 -17 -7 -23z m4655 -24
c-10 -10 -19 5 -10 18 6 11 8 11 12 0 2 -7 1 -15 -2 -18z m-1336 -34 c0 -5
-13 3 -30 18 -16 14 -30 28 -30 30 0 3 14 -5 30 -17 17 -12 30 -26 30 -31z
m-3500 26 c7 -8 18 -15 26 -15 25 0 25 -21 1 -50 -24 -28 -24 -30 -8 -63 9
-19 17 -31 19 -26 2 4 -2 17 -8 28 -13 25 0 55 30 71 15 8 19 7 18 -7 -1 -10
4 -44 11 -76 15 -68 9 -92 -19 -84 -22 6 -28 -8 -7 -16 8 -4 7 -6 -3 -6 -8 -1
-21 -10 -28 -21 -7 -11 -20 -20 -30 -20 -24 1 -53 25 -57 47 -1 10 -8 17 -14
16 -20 -5 -14 139 9 191 20 48 38 57 60 31z m1981 -15 c-13 -11 -31 -20 -40
-20 -9 1 -1 9 19 20 45 24 51 24 21 0z m-131 -26 c-58 -8 -150 -8 -150 -1 0 4
39 6 88 6 48 -1 76 -3 62 -5z m-42 -21 c-16 -2 -40 -2 -55 0 -16 2 -3 4 27 4
30 0 43 -2 28 -4z m1283 -10 c13 -16 12 -17 -3 -4 -10 7 -18 15 -18 17 0 8 8
3 21 -13z m1819 -5 c56 -59 68 -143 33 -219 -12 -24 -29 -61 -38 -82 -19 -40
-55 -69 -55 -44 0 8 -21 37 -47 64 -106 111 -107 114 -73 154 16 20 19 21 20
7 0 -24 21 -23 27 1 9 34 33 34 47 0 l13 -32 5 32 c3 23 0 34 -15 44 -19 12
-19 14 12 47 17 19 31 38 31 42 0 15 19 8 40 -14z m-1756 -14 c23 -9 20 -23
-4 -17 -11 3 -20 9 -20 14 0 11 3 11 24 3z m-2952 -34 c5 -34 -7 -41 -15 -8
-5 19 -2 38 7 38 2 0 6 -13 8 -30z m3459 -12 c16 -29 2 -21 -22 15 -17 23 -18
28 -6 18 10 -8 23 -23 28 -33z m-394 -11 c4 -7 29 -24 55 -37 26 -13 45 -26
43 -28 -7 -7 -113 49 -119 63 -7 18 10 20 21 2z m15 -106 c20 -7 46 -20 58
-31 27 -23 101 -34 175 -25 52 7 57 6 53 -11 -8 -44 -150 -59 -219 -24 -53 27
-117 86 -135 124 l-15 31 24 -26 c13 -15 40 -32 59 -38z m448 -13 c0 -7 -11
-14 -25 -14 -14 -1 -25 0 -25 2 0 4 33 20 48 23 1 1 2 -5 2 -11z m-3755 -28
c3 -5 2 -10 -4 -10 -5 0 -13 5 -16 10 -3 6 -2 10 4 10 5 0 13 -4 16 -10z m28
-25 c-18 -25 -33 -32 -33 -16 0 7 37 39 48 40 2 1 -5 -10 -15 -24z m87 17 c0
-13 -12 -22 -22 -16 -10 6 -1 24 13 24 5 0 9 -4 9 -8z m3632 -21 c-6 -4 -4
-11 4 -19 11 -10 14 -10 14 0 0 7 5 5 11 -5 16 -27 7 -29 -39 -6 -50 25 -53
34 -11 35 17 1 26 -2 21 -5z m-3679 -49 c-4 -26 -8 -30 -19 -21 -17 14 -18 41
-2 57 17 17 27 2 21 -36z m4877 -60 c0 -11 -22 -32 -32 -32 -5 0 -4 9 2 20 11
20 30 28 30 12z m-4925 -32 c3 -5 1 -10 -4 -10 -6 0 -11 5 -11 10 0 6 2 10 4
10 3 0 8 -4 11 -10z m1445 -20 c0 -5 -12 -10 -27 -10 -22 0 -25 2 -13 10 20
13 40 13 40 0z m70 -30 c-8 -5 -19 -10 -25 -10 -5 0 -3 5 5 10 8 5 20 10 25
10 6 0 3 -5 -5 -10z m2335 -19 c-9 -16 -25 -3 -18 15 4 10 9 12 15 6 6 -6 7
-15 3 -21z m-3800 9 c3 -5 2 -10 -4 -10 -5 0 -13 5 -16 10 -3 6 -2 10 4 10 5
0 13 -4 16 -10z m1615 -19 c18 -6 6 -9 -45 -13 -84 -6 -133 4 -65 13 62 8 81
8 110 0z m-1636 -20 c3 -5 -5 -16 -19 -25 -25 -16 -30 -11 -19 18 7 17 29 21
38 7z m3849 -74 c-12 -166 -21 -188 -38 -91 -5 30 -2 46 8 55 21 20 10 48 -16
41 -20 -5 -20 -4 -8 11 10 13 10 17 1 17 -10 0 -10 3 0 15 7 8 16 13 20 10 5
-3 12 0 16 6 13 21 21 -10 17 -64z m-3778 23 c3 -5 -1 -10 -9 -10 -9 0 -16 5
-16 10 0 6 4 10 9 10 6 0 13 -4 16 -10z m4710 -27 c-11 -63 -13 -67 -65 -118
-41 -40 -50 -46 -50 -29 0 11 13 32 28 46 15 13 39 50 53 81 28 65 43 74 34
20z m-4745 19 c0 -14 -39 -46 -60 -49 -25 -4 -26 9 -2 29 27 24 62 35 62 20z
m3350 -32 c-8 -5 -19 -10 -25 -10 -5 0 -3 5 5 10 8 5 20 10 25 10 6 0 3 -5 -5
-10z m-3300 -17 c0 -30 20 -172 26 -187 20 -51 -100 36 -131 95 -16 30 -10 39
55 78 37 22 50 26 50 14z m3137 -9 c-3 -3 -12 -4 -19 -1 -8 3 -5 6 6 6 11 1
17 -2 13 -5z m-3247 -8 c0 -3 -4 -8 -10 -11 -5 -3 -10 -1 -10 4 0 6 5 11 10
11 6 0 10 -2 10 -4z m2060 -38 c0 -13 -23 -5 -28 10 -2 7 2 10 12 6 9 -3 16
-11 16 -16z m-2127 -34 c-20 -31 -27 -25 -18 16 5 25 10 29 21 20 11 -10 11
-16 -3 -36z m2957 17 c0 -5 -9 -11 -20 -14 -22 -6 -28 8 -7 16 19 8 27 8 27
-2z m-200 -21 c0 -5 -5 -10 -11 -10 -5 0 -7 5 -4 10 3 6 8 10 11 10 2 0 4 -4
4 -10z m-2685 -59 c26 -28 67 -58 95 -70 27 -12 51 -25 54 -30 8 -13 -27 -103
-42 -108 -22 -9 -102 28 -137 63 -48 47 -62 105 -39 156 9 21 18 38 20 38 2 0
24 -22 49 -49z m1331 -16 c-13 -10 -32 -13 -60 -9 -66 10 -61 20 12 21 60 2
65 1 48 -12z m1993 -16 c60 -13 130 -56 161 -99 l23 -32 -24 13 c-13 7 -53 30
-89 52 -36 22 -85 48 -110 58 -51 21 -34 24 39 8z m-341 -115 c9 -29 8 -36 -5
-41 -38 -15 -69 38 -36 62 26 20 28 19 41 -21z m-1368 -9 c0 -8 -4 -15 -10
-15 -5 0 -10 7 -10 15 0 8 5 15 10 15 6 0 10 -7 10 -15z m140 -49 c0 -23 -17
-36 -46 -36 -11 0 -14 11 -13 44 l3 45 28 -15 c19 -10 28 -22 28 -38z m-1555
30 c18 -13 18 -14 -3 -25 -22 -12 -52 -15 -52 -5 0 11 21 44 28 44 5 0 17 -6
27 -14z m3138 -1 c18 -13 16 -15 -22 -35 -43 -21 -48 -17 -29 25 13 28 25 31
51 10z m-3082 -77 l12 -22 17 22 c21 26 42 28 78 8 15 -8 40 -17 55 -21 15 -3
25 -10 22 -15 -3 -6 -15 -5 -29 1 -18 9 -31 7 -58 -5 -35 -17 -74 -69 -63 -85
3 -5 1 -12 -5 -16 -6 -4 -8 -11 -5 -16 9 -14 -33 -11 -65 6 -32 17 -65 66 -73
111 -5 27 -3 31 26 41 53 17 75 15 88 -9z m4135 -33 c-25 -19 -37 -19 -30 0 4
8 16 15 28 15 21 -1 21 -1 2 -15z m-3516 -17 c0 -7 -5 -20 -10 -28 -8 -12 -10
-9 -10 13 0 15 5 27 10 27 6 0 10 -6 10 -12z m3800 2 c30 -16 43 -46 30 -70
-15 -29 -28 -25 -38 13 -6 17 -13 40 -17 50 -8 20 -2 21 25 7z m-3840 -84 c0
-26 -6 -18 -14 19 -5 22 -4 26 4 15 5 -8 10 -24 10 -34z m660 19 c-7 -8 -17
-15 -22 -15 -6 0 -5 7 2 15 7 8 17 15 22 15 6 0 5 -7 -2 -15z m3269 -37 c22
-59 -46 -175 -81 -140 -8 8 -7 20 3 44 7 18 12 41 10 52 -2 17 34 64 52 65 4
1 11 -9 16 -21z m-3324 -28 c3 -5 1 -10 -4 -10 -6 0 -11 5 -11 10 0 6 2 10 4
10 3 0 8 -4 11 -10z m55 0 c0 -5 -4 -10 -10 -10 -5 0 -10 5 -10 10 0 6 5 10
10 10 6 0 10 -4 10 -10z m-943 -202 c-3 -8 -6 -5 -6 6 -1 11 2 17 5 13 3 -3 4
-12 1 -19z m-87 -116 c0 -7 4 -11 9 -8 4 3 7 -2 6 -12 -3 -31 -17 -72 -25 -72
-8 0 -20 75 -20 119 1 25 1 25 15 7 8 -11 15 -26 15 -34z m40 -138 c0 -8 -4
-12 -10 -9 -5 3 -10 10 -10 16 0 5 5 9 10 9 6 0 10 -7 10 -16z m-10 -54 c0 -5
-4 -10 -10 -10 -5 0 -10 5 -10 10 0 6 5 10 10 10 6 0 10 -4 10 -10z m237 -197
c-3 -10 -5 -4 -5 12 0 17 2 24 5 18 2 -7 2 -21 0 -30z m13 -33 c0 -5 -4 -10
-10 -10 -5 0 -10 5 -10 10 0 6 5 10 10 10 6 0 10 -4 10 -10z m1037 -202 c-3
-7 -5 -2 -5 12 0 14 2 19 5 13 2 -7 2 -19 0 -25z m2463 -52 c0 -14 -12 -38
-26 -55 -25 -30 -44 -40 -44 -23 0 10 60 102 66 102 2 0 4 -11 4 -24z m-2690
-66 c0 -5 -5 -10 -11 -10 -5 0 -7 5 -4 10 3 6 8 10 11 10 2 0 4 -4 4 -10z
m-88 -172 c-7 -7 -12 -8 -12 -2 0 6 3 14 7 17 3 4 9 5 12 2 2 -3 -1 -11 -7
-17z m-498 -50 c7 -31 -2 -80 -14 -73 -4 3 -15 27 -24 55 -13 41 -14 53 -4 64
11 11 15 11 24 -3 6 -9 14 -28 18 -43z m89 -46 c-16 -16 -17 -16 -10 1 4 10 7
33 8 50 l1 32 9 -33 c8 -26 6 -36 -8 -50z m37 -35 c0 -13 5 -28 11 -34 11 -11
2 -63 -12 -63 -12 0 -26 59 -21 92 5 34 22 38 22 5z m-53 -9 c-3 -8 -6 -5 -6
6 -1 11 2 17 5 13 3 -3 4 -12 1 -19z m-57 -30 c0 -30 -1 -31 -15 -12 -19 25
-19 44 0 44 10 0 15 -10 15 -32z m40 -75 c0 -19 -3 -24 -10 -17 -6 6 -8 18 -4
27 9 24 14 21 14 -10z m80 -3 c0 -5 -2 -10 -4 -10 -3 0 -8 5 -11 10 -3 6 -1
10 4 10 6 0 11 -4 11 -10z m86 -74 c-1 -43 -1 -43 -18 -23 -15 16 -18 17 -18
4 0 -9 -5 -19 -11 -22 -7 -5 -9 3 -7 21 2 16 7 28 13 26 5 -2 12 6 17 17 13
35 26 23 24 -23z m-129 -68 c-3 -7 -5 -2 -5 12 0 14 2 19 5 13 2 -7 2 -19 0
-25z m183 -83 c0 -8 -4 -15 -10 -15 -5 0 -7 7 -4 15 4 8 8 15 10 15 2 0 4 -7
4 -15z m114 -237 c-3 -4 -9 -8 -15 -8 -5 0 -9 4 -9 8 0 5 7 9 15 9 8 0 12 -4
9 -9z m336 -208 c-6 -11 -16 -18 -21 -14 -6 3 -3 12 8 20 24 18 26 17 13 -6z
m-349 -168 c-7 -13 -6 -23 1 -30 9 -9 9 -12 1 -12 -14 0 -27 36 -18 50 12 19
26 11 16 -8z m1358 -132 c0 -23 -1 -23 -9 -5 -5 11 -9 29 -9 40 -1 17 1 17 9
5 5 -8 9 -26 9 -40z m-438 27 c-1 -4 -1 -17 -1 -29 0 -19 -2 -20 -10 -8 -13
20 -13 53 1 48 6 -2 10 -7 10 -11z m36 -29 c-3 -8 -6 -5 -6 6 -1 11 2 17 5 13
3 -3 4 -12 1 -19z m203 -12 c0 -5 -7 -3 -15 4 -8 7 -12 17 -9 22 7 10 24 -9
24 -26z m-1130 20 c0 -3 -4 -8 -10 -11 -5 -3 -10 -1 -10 4 0 6 5 11 10 11 6 0
10 -2 10 -4z m95 -46 c-3 -5 -10 -10 -16 -10 -5 0 -9 5 -9 10 0 6 7 10 16 10
8 0 12 -4 9 -10z m5 -50 c0 -5 -4 -10 -10 -10 -5 0 -10 5 -10 10 0 6 5 10 10
10 6 0 10 -4 10 -10z m80 -15 c0 -8 -4 -15 -8 -15 -5 0 -9 7 -9 15 0 8 4 15 9
15 4 0 8 -7 8 -15z m416 -252 c-6 -6 -36 9 -36 18 0 5 9 4 20 -3 10 -7 18 -14
16 -15z m-64 -21 c-19 -6 -44 6 -37 18 4 7 14 6 28 -2 14 -7 17 -13 9 -16z
m-86 -9 c-10 -10 -19 5 -10 18 6 11 8 11 12 0 2 -7 1 -15 -2 -18z"/>
<path d="M6445 8930 c3 -5 8 -10 11 -10 2 0 4 5 4 10 0 6 -5 10 -11 10 -5 0
-7 -4 -4 -10z"/>
<path d="M4912 7694 c-7 -8 -8 -14 -3 -14 10 0 25 19 20 25 -2 1 -10 -3 -17
-11z"/>
<path d="M5305 7699 c-4 -6 -5 -12 -2 -15 2 -3 7 2 10 11 7 17 1 20 -8 4z"/>
<path d="M7468 7239 c-2 -36 2 -63 10 -71 4 -4 7 13 7 37 0 46 -14 75 -17 34z"/>
<path d="M3580 5001 c0 -6 4 -13 10 -16 6 -3 7 1 4 9 -7 18 -14 21 -14 7z"/>
<path d="M3596 4947 c3 -10 9 -15 12 -12 3 3 0 11 -7 18 -10 9 -11 8 -5 -6z"/>
<path d="M5778 9513 c6 -2 18 -2 25 0 6 3 1 5 -13 5 -14 0 -19 -2 -12 -5z"/>
<path d="M5030 9410 c-8 -5 -12 -12 -9 -15 8 -8 39 5 39 16 0 11 -11 11 -30
-1z"/>
<path d="M3768 9263 c6 -2 18 -2 25 0 6 3 1 5 -13 5 -14 0 -19 -2 -12 -5z"/>
<path d="M3688 9239 c-21 -11 -38 -22 -38 -24 0 -3 17 3 38 13 20 11 44 22 52
25 13 5 13 5 0 6 -8 0 -32 -9 -52 -20z"/>
<path d="M3592 9174 c-23 -20 -47 -45 -53 -57 -7 -13 1 -8 17 11 16 18 43 44
59 57 17 13 27 24 24 25 -3 0 -24 -16 -47 -36z"/>
<path d="M5350 7641 c0 -5 9 -7 20 -4 11 3 20 7 20 9 0 2 -9 4 -20 4 -11 0
-20 -4 -20 -9z"/>
<path d="M5540 7479 c0 -5 5 -7 10 -4 6 3 10 8 10 11 0 2 -4 4 -10 4 -5 0 -10
-5 -10 -11z"/>
<path d="M5568 7313 c7 -3 16 -2 19 1 4 3 -2 6 -13 5 -11 0 -14 -3 -6 -6z"/>
<path d="M5683 7293 c9 -2 23 -2 30 0 6 3 -1 5 -18 5 -16 0 -22 -2 -12 -5z"/>
<path d="M5917 7049 c7 -7 15 -10 18 -7 3 3 -2 9 -12 12 -14 6 -15 5 -6 -5z"/>
<path d="M5543 7013 c9 -2 23 -2 30 0 6 3 -1 5 -18 5 -16 0 -22 -2 -12 -5z"/>
<path d="M4666 6855 c4 -8 8 -15 10 -15 2 0 4 7 4 15 0 8 -4 15 -10 15 -5 0
-7 -7 -4 -15z"/>
<path d="M5161 6806 c-7 -8 -8 -17 -3 -20 6 -3 13 1 16 10 9 23 2 28 -13 10z"/>
<path d="M5191 6744 c0 -11 3 -14 6 -6 3 7 2 16 -1 19 -3 4 -6 -2 -5 -13z"/>
<path d="M6420 6670 c0 -5 6 -10 14 -10 8 0 18 5 21 10 3 6 -3 10 -14 10 -12
0 -21 -4 -21 -10z"/>
<path d="M6400 6656 c0 -2 7 -9 15 -16 9 -7 15 -8 15 -2 0 5 -7 12 -15 16 -8
3 -15 4 -15 2z"/>
<path d="M3507 6263 c-4 -3 -7 -11 -7 -17 0 -6 5 -5 12 2 6 6 9 14 7 17 -3 3
-9 2 -12 -2z"/>
<path d="M3417 6203 c-4 -3 -7 -11 -7 -17 0 -6 5 -5 12 2 6 6 9 14 7 17 -3 3
-9 2 -12 -2z"/>
<path d="M3470 6170 c0 -5 5 -10 10 -10 6 0 10 5 10 10 0 6 -4 10 -10 10 -5 0
-10 -4 -10 -10z"/>
<path d="M6746 5683 c-6 -14 -5 -15 5 -6 7 7 10 15 7 18 -3 3 -9 -2 -12 -12z"/>
<path d="M4610 5592 c0 -12 19 -26 26 -19 2 2 -2 10 -11 17 -9 8 -15 8 -15 2z"/>
<path d="M5270 5484 c-110 -17 -123 -25 -89 -52 17 -15 26 -17 31 -9 6 9 10 9
16 -1 5 -7 22 -16 38 -21 23 -6 37 -2 72 22 29 20 40 33 34 39 -11 11 -78 25
-102 22z"/>
<path d="M5258 5333 c7 -3 16 -2 19 1 4 3 -2 6 -13 5 -11 0 -14 -3 -6 -6z"/>
<path d="M5127 5302 c-6 -8 40 -68 47 -62 2 3 -2 20 -9 38 -13 31 -29 41 -38
24z"/>
<path d="M5647 5214 c6 -15 23 -19 23 -5 0 5 -7 11 -14 14 -10 4 -13 1 -9 -9z"/>
<path d="M3651 5194 c0 -11 3 -14 6 -6 3 7 2 16 -1 19 -3 4 -6 -2 -5 -13z"/>
<path d="M5751 5186 c2 -2 15 -9 29 -15 24 -11 24 -11 6 3 -16 13 -49 24 -35
12z"/>
<path d="M5835 5180 c-3 -5 -1 -10 4 -10 6 0 11 5 11 10 0 6 -2 10 -4 10 -3 0
-8 -4 -11 -10z"/>
<path d="M5707 5139 c7 -7 15 -10 18 -7 3 3 -2 9 -12 12 -14 6 -15 5 -6 -5z"/>
<path d="M3692 5100 c0 -19 2 -27 5 -17 2 9 2 25 0 35 -3 9 -5 1 -5 -18z"/>
<path d="M6521 5114 c0 -11 3 -14 6 -6 3 7 2 16 -1 19 -3 4 -6 -2 -5 -13z"/>
<path d="M3766 5094 c-4 -10 -1 -14 6 -12 15 5 23 28 10 28 -5 0 -13 -7 -16
-16z"/>
<path d="M3860 5001 c0 -22 5 -43 10 -46 6 -4 10 12 10 39 0 25 -4 46 -10 46
-5 0 -10 -18 -10 -39z"/>
<path d="M6365 4671 c-4 -12 -12 -18 -21 -14 -8 3 -14 -1 -14 -11 0 -9 4 -16
10 -16 12 0 45 49 37 56 -3 3 -8 -4 -12 -15z"/>
<path d="M4693 4623 c-20 -7 -15 -33 6 -33 15 0 31 18 31 34 0 4 -24 3 -37 -1z"/>
<path d="M4854 4593 c0 -16 -3 -39 -7 -53 -7 -20 -6 -22 3 -10 9 12 11 10 6
-11 -5 -24 -2 -27 28 -33 37 -7 66 0 66 18 0 6 5 4 10 -4 8 -13 11 -12 24 5
18 24 19 32 6 40 -5 3 -7 12 -3 20 3 8 0 15 -6 15 -6 0 -11 -9 -11 -20 0 -11
-3 -20 -6 -20 -12 0 -54 51 -54 66 0 16 -16 19 -25 4 -5 -8 -11 -8 -19 0 -10
8 -13 4 -12 -17z"/>
<path d="M4863 4456 c2 -6 22 -12 45 -14 33 -2 42 0 42 13 0 12 -10 15 -45 13
-28 -1 -44 -6 -42 -12z"/>
<path d="M4030 4379 c0 -5 5 -7 10 -4 6 3 10 8 10 11 0 2 -4 4 -10 4 -5 0 -10
-5 -10 -11z"/>
<path d="M3797 4309 c6 -22 23 -26 23 -5 0 8 -6 16 -14 19 -10 4 -12 0 -9 -14z"/>
<path d="M4310 4261 c-7 -14 -7 -22 1 -26 13 -8 15 -6 23 23 9 27 -9 30 -24 3z"/>
<path d="M3801 4204 c0 -11 3 -14 6 -6 3 7 2 16 -1 19 -3 4 -6 -2 -5 -13z"/>
<path d="M4505 4210 c-3 -5 -1 -10 4 -10 6 0 11 5 11 10 0 6 -2 10 -4 10 -3 0
-8 -4 -11 -10z"/>
<path d="M5900 4121 c0 -5 5 -13 10 -16 6 -3 10 -2 10 4 0 5 -4 13 -10 16 -5
3 -10 2 -10 -4z"/>
<path d="M3801 4094 c0 -11 3 -14 6 -6 3 7 2 16 -1 19 -3 4 -6 -2 -5 -13z"/>
<path d="M4915 3900 c-3 -5 -1 -10 4 -10 6 0 11 5 11 10 0 6 -2 10 -4 10 -3 0
-8 -4 -11 -10z"/>
<path d="M4810 3886 c0 -8 5 -18 10 -21 6 -3 10 3 10 14 0 12 -4 21 -10 21 -5
0 -10 -6 -10 -14z"/>
<path d="M3900 3836 c0 -8 5 -18 10 -21 6 -3 10 1 10 9 0 8 -4 18 -10 21 -5 3
-10 -1 -10 -9z"/>
<path d="M3834 3805 c8 -8 18 -15 22 -15 3 0 1 7 -6 15 -7 8 -17 15 -22 15 -5
0 -3 -7 6 -15z"/>
<path d="M3870 3746 c0 -8 5 -18 10 -21 6 -3 10 3 10 14 0 12 -4 21 -10 21 -5
0 -10 -6 -10 -14z"/>
<path d="M3968 3753 c7 -3 16 -2 19 1 4 3 -2 6 -13 5 -11 0 -14 -3 -6 -6z"/>
<path d="M3920 3725 c0 -8 -7 -15 -15 -15 -8 0 -15 -7 -15 -15 0 -8 7 -15 15
-15 8 0 15 -7 15 -15 0 -8 -7 -15 -15 -15 -21 0 -19 -47 3 -59 11 -7 13 -13 6
-18 -11 -8 -14 -53 -4 -53 3 0 5 -17 3 -37 -4 -55 14 -13 22 50 5 36 10 46 18
38 14 -11 40 5 49 31 6 14 2 15 -25 7 -41 -12 -49 2 -41 74 4 38 2 57 -5 57
-6 0 -11 -7 -11 -15z"/>
<path d="M4020 3670 c0 -5 4 -10 9 -10 6 0 13 5 16 10 3 6 -1 10 -9 10 -9 0
-16 -4 -16 -10z"/>
<path d="M3843 3575 c0 -22 2 -30 4 -17 2 12 2 30 0 40 -3 9 -5 -1 -4 -23z"/>
<path d="M4998 3593 c7 -3 16 -2 19 1 4 3 -2 6 -13 5 -11 0 -14 -3 -6 -6z"/>
<path d="M3860 3570 c0 -5 7 -10 16 -10 8 0 12 5 9 10 -3 6 -10 10 -16 10 -5
0 -9 -4 -9 -10z"/>
<path d="M3863 3523 c-7 -2 -13 -14 -13 -24 0 -11 -4 -17 -10 -14 -10 6 -13
-14 -11 -75 2 -53 11 -90 22 -90 6 0 8 4 4 9 -10 17 15 23 31 7 8 -9 20 -16
26 -16 19 0 1 25 -28 40 l-29 14 30 6 c21 4 34 1 42 -10 6 -8 15 -12 18 -8 4
4 -6 19 -23 33 -20 17 -29 31 -25 42 5 13 2 15 -15 11 -21 -6 -21 -5 -7 29 22
52 20 59 -12 46z"/>
<path d="M3724 3428 c-113 -107 -154 -259 -120 -445 32 -172 89 -302 186 -428
60 -77 191 -206 251 -246 179 -119 240 -152 349 -185 100 -31 110 -31 104 4
-8 45 -16 66 -31 84 -10 11 -13 28 -10 44 3 15 0 39 -5 53 -24 59 -43 91 -56
91 -7 0 -11 4 -8 9 3 5 -1 14 -9 21 -8 7 -15 21 -15 32 0 10 -10 29 -23 41
-13 12 -26 30 -30 40 -3 9 -13 17 -22 17 -8 0 -15 6 -15 14 0 8 -7 16 -15 20
-8 3 -15 12 -15 21 0 8 -12 20 -26 25 -14 6 -22 14 -19 20 3 6 -5 14 -20 20
-22 8 -24 13 -15 30 6 11 7 20 3 19 -24 -4 -33 4 -33 29 0 16 -9 39 -20 52
-11 13 -20 29 -20 37 0 7 -6 12 -12 11 -7 -2 -13 4 -13 12 0 10 8 14 24 12 16
-3 22 1 19 10 -3 8 -19 12 -42 11 -42 -3 -50 14 -8 19 l27 3 -30 17 -30 17 37
1 c20 0 38 -5 40 -12 3 -7 7 -6 11 5 4 11 1 17 -9 17 -8 0 -13 4 -10 8 3 5 1
22 -4 38 l-8 29 -1 -27 c-1 -26 -4 -28 -42 -28 -33 0 -40 3 -35 16 3 8 2 12
-4 9 -12 -8 -13 1 -1 42 8 27 7 31 -6 26 -9 -4 -21 1 -27 9 -6 8 -16 17 -23
19 -8 2 -9 9 -4 18 7 11 13 10 35 -4 15 -10 26 -13 26 -6 0 6 -7 11 -15 11 -8
0 -15 7 -15 15 0 8 -4 15 -10 15 -5 0 -7 13 -3 31 5 27 3 30 -13 27 -11 -2
-18 -11 -16 -21 2 -14 -3 -16 -30 -13 -45 6 -46 7 -19 15 36 10 48 34 32 64
-7 14 -10 30 -7 36 11 17 -20 13 -34 -4 -8 -10 -9 -15 -1 -15 13 0 25 -45 16
-60 -5 -7 -14 0 -26 19 -10 17 -23 31 -29 31 -14 0 -12 -17 3 -23 10 -4 10 -6
0 -6 -7 -1 -13 -8 -13 -17 0 -9 -5 -14 -11 -12 -8 3 -12 40 -14 103 -1 55 -5
108 -9 118 -5 10 -4 17 3 17 6 0 11 7 11 15 0 26 -20 17 -76 -37z m241 -377
c3 -5 1 -12 -5 -16 -5 -3 -10 1 -10 9 0 18 6 21 15 7z m25 -50 c0 -6 -4 -13
-10 -16 -5 -3 -10 1 -10 9 0 9 5 16 10 16 6 0 10 -4 10 -9z"/>
<path d="M3930 3430 c0 -16 2 -30 4 -30 2 0 13 -3 23 -6 15 -6 16 -4 6 7 -20
20 -15 39 9 39 27 0 21 5 -14 14 -26 6 -28 4 -28 -24z"/>
<path d="M4736 3435 c4 -8 10 -12 15 -9 11 6 2 24 -11 24 -5 0 -7 -7 -4 -15z"/>
<path d="M6980 3431 c0 -6 4 -13 10 -16 6 -3 7 1 4 9 -7 18 -14 21 -14 7z"/>
<path d="M4464 3363 c14 -4 15 -7 6 -13 -7 -4 -8 -10 -3 -13 5 -3 15 -1 23 4
13 8 13 10 0 19 -8 5 -22 9 -30 9 -9 -1 -8 -3 4 -6z"/>
<path d="M4568 3313 c7 -3 16 -2 19 1 4 3 -2 6 -13 5 -11 0 -14 -3 -6 -6z"/>
<path d="M4490 3249 c0 -12 25 -22 41 -17 6 2 0 9 -15 16 -16 7 -26 8 -26 1z"/>
<path d="M4515 3090 c3 -5 8 -10 11 -10 2 0 4 5 4 10 0 6 -5 10 -11 10 -5 0
-7 -4 -4 -10z"/>
<path d="M4467 3084 c-8 -8 1 -24 14 -24 5 0 9 7 9 15 0 15 -12 20 -23 9z"/>
<path d="M4554 3052 c-6 -4 -10 -15 -8 -25 3 -22 14 -36 14 -18 0 7 5 9 10 6
6 -4 8 -11 5 -16 -4 -5 -1 -9 4 -9 12 0 14 14 5 48 -7 23 -12 26 -30 14z"/>
<path d="M4590 2934 c0 -14 4 -23 9 -20 5 3 7 15 4 26 -7 28 -13 25 -13 -6z"/>
<path d="M5172 2129 c-13 -5 -28 -7 -33 -3 -5 3 -9 1 -9 -5 0 -5 -3 -17 -6
-26 -4 -10 -2 -15 7 -13 8 2 13 -3 12 -9 -4 -17 -3 -16 91 7 80 20 119 38 57
26 -26 -5 -32 -3 -28 8 4 9 -4 16 -25 20 -37 7 -37 7 -66 -5z m62 -23 c-3 -8
-12 -12 -20 -9 -17 6 -9 23 11 23 8 0 12 -6 9 -14z"/>
<path d="M5338 2113 c7 -3 16 -2 19 1 4 3 -2 6 -13 5 -11 0 -14 -3 -6 -6z"/>
</g>
</svg>
